<?xml version="1.0" encoding="UTF-8"?>
<!DOCTYPE svg PUBLIC "-//W3C//DTD SVG 1.1//EN" "http://www.w3.org/Graphics/SVG/1.1/DTD/svg11.dtd">
<svg xmlns="http://www.w3.org/2000/svg" version="1.1" width="1000px" height="1000px" style="shape-rendering:geometricPrecision; text-rendering:geometricPrecision; image-rendering:optimizeQuality; fill-rule:evenodd; clip-rule:evenodd" xmlns:xlink="http://www.w3.org/1999/xlink">
<g><path style="opacity:0.992" fill="#fefffe" d="M 269.5,9.5 C 419.167,9.33333 568.834,9.5 718.5,10C 781.043,15.4945 835.709,38.8278 882.5,80C 917.799,110.947 944.966,147.781 964,190.5C 975.556,218.389 982.556,247.389 985,277.5C 985.985,432.185 985.652,586.851 984,741.5C 971.417,830.228 927.917,899.061 853.5,948C 815.165,971.667 773.498,985.334 728.5,989C 578.5,989.667 428.5,989.667 278.5,989C 216.33,983.297 161.997,959.964 115.5,919C 80.2006,888.053 53.0339,851.219 34,808.5C 22.4445,780.611 15.4445,751.611 13,721.5C 12.3333,570.167 12.3333,418.833 13,267.5C 22.7342,174.206 66.5676,102.039 144.5,51C 183.027,27.4354 224.693,13.6021 269.5,9.5 Z M 292.5,84.5 C 426.834,84.3333 561.167,84.5 695.5,85C 746.387,85.5115 791.053,102.178 829.5,135C 847.562,151.05 863.395,168.883 877,188.5C 894.822,216.632 905.489,247.298 909,280.5C 910.132,355.157 910.632,429.823 910.5,504.5C 910.634,578.844 910.134,653.177 909,727.5C 897.928,811.86 853.095,870.026 774.5,902C 758.627,907.708 742.294,911.375 725.5,913C 651.677,914.134 577.844,914.634 504,914.5C 430.156,914.634 356.323,914.134 282.5,913C 239.25,908.486 201.25,892.152 168.5,864C 150.438,847.95 134.605,830.117 121,810.5C 99.2919,776.008 88.2919,738.341 88,697.5C 87.3333,562.167 87.3333,426.833 88,291.5C 90.7696,211.418 126.27,150.918 194.5,110C 225.257,93.6453 257.924,85.1453 292.5,84.5 Z M 480.5,323.5 C 554.712,319.517 611.212,348.85 650,411.5C 680,470.167 680,528.833 650,587.5C 611.236,650.303 554.736,679.47 480.5,675C 412.758,665.24 365.258,629.073 338,566.5C 315.922,504.115 323.589,445.781 361,391.5C 391.731,352.956 431.565,330.289 480.5,323.5 Z"/></g>
<g><path style="opacity:0.981" fill="#fefffe" d="M 742.5,171.5 C 776.014,168.332 800.181,181.666 815,211.5C 826.087,244.687 817.92,271.854 790.5,293C 769.684,305.023 748.017,306.69 725.5,298C 694.99,281.475 682.824,255.975 689,221.5C 696.75,193.913 714.584,177.246 742.5,171.5 Z"/></g>
<g><path style="opacity:0.985" fill="#fefffe" d="M 477.5,247.5 C 574.679,242.784 651.179,279.784 707,358.5C 748.289,425.524 758.623,497.191 738,573.5C 709.397,661.103 650.897,717.936 562.5,744C 466.9,765.402 384.733,741.568 316,672.5C 259.089,607.039 238.755,531.372 255,445.5C 278.878,347.622 339.045,284.122 435.5,255C 449.505,251.723 463.505,249.223 477.5,247.5 Z M 480.5,323.5 C 431.565,330.289 391.731,352.956 361,391.5C 323.589,445.781 315.922,504.115 338,566.5C 365.258,629.073 412.758,665.24 480.5,675C 554.736,679.47 611.236,650.303 650,587.5C 680,528.833 680,470.167 650,411.5C 611.212,348.85 554.712,319.517 480.5,323.5 Z"/></g>
</svg>
